<svg width="107" height="108" viewBox="0 0 107 108" fill="none" xmlns="http://www.w3.org/2000/svg">
<path d="M66.5607 64H50.0607C47.8798 67.6963 49.1504 70.2145 53.0607 75L58.0607 69L62.5607 75C64.5607 72 69.0607 69 66.5607 64Z" fill="#421D90"/>
<path d="M56.5607 80.5C54.0607 77 52.5607 70 58.0607 64.5C63.0607 69 62.0607 74.5 59.5607 80.5L58.0607 82L56.5607 80.5Z" fill="#5F2EC7"/>
<g filter="url(#filter0_d_8_2)">
<path d="M6.99999 61.1404C71.9566 36.8047 75.5 35.0103 92.5 24.6403L52.5 50.6404L6.99999 61.1404Z" fill="#421D90"/>
<path d="M6.99999 61.1404C71.9566 36.8047 75.5 35.0103 92.5 24.6403L52.5 50.6404L6.99999 61.1404Z" stroke="#421D90"/>
</g>
<g clip-path="url(#clip0_8_2)">
<path d="M95.0349 18.4319L91.3372 21.3303L90.4227 19.8055L89.5083 18.2807L88.4109 16.451L87.405 14.7738L86.4435 13.1706L85.4847 11.5718L89.0391 8.66193L89.9759 10.1885L90.9128 11.715L91.9732 13.443L93.0675 15.2261L94.0981 16.9053L95.0349 18.4319Z" fill="white"/>
<path d="M103.407 32.7467L99.8639 35.5123L98.9097 33.9212L97.9555 32.3302L96.9377 30.6331L96.0471 29.1481L94.902 27.2388L94.0115 25.7538L97.5658 22.844L98.5816 24.5662L99.5427 26.1957L100.486 27.7953L101.543 29.5871L102.475 31.1669L103.407 32.7467Z" fill="white"/>
<path d="M98.5816 24.5662L97.5658 22.844L94.0115 25.7538L94.902 27.2388M98.5816 24.5662L94.902 27.2388M98.5816 24.5662L99.5427 26.1957M94.902 27.2388L96.0471 29.1481M99.5427 26.1957L96.0471 29.1481M99.5427 26.1957L100.486 27.7953M96.0471 29.1481L96.9377 30.6331M96.9377 30.6331L100.486 27.7953M96.9377 30.6331L97.9555 32.3302M100.486 27.7953L101.543 29.5871M101.543 29.5871L97.9555 32.3302M101.543 29.5871L102.475 31.1669M97.9555 32.3302L98.9097 33.9213M98.9097 33.9213L99.8639 35.5123L103.407 32.7467L102.475 31.1669M98.9097 33.9213L102.475 31.1669M94.0981 16.9053L95.0349 18.4319L91.3372 21.3303L90.4227 19.8055M94.0981 16.9053L90.4227 19.8055M94.0981 16.9053L93.0675 15.2261M90.4227 19.8055L89.5083 18.2807M93.0675 15.2261L89.5083 18.2807M93.0675 15.2261L91.9732 13.443M89.5083 18.2807L88.4109 16.451M91.9732 13.443L88.4109 16.451M91.9732 13.443L90.9128 11.715M88.4109 16.451L87.405 14.7738M90.9128 11.715L87.405 14.7738M90.9128 11.715L89.9759 10.1885M87.405 14.7738L85.4847 11.5718L89.0391 8.66193L89.9759 10.1885M89.9759 10.1885L86.4449 13.1728" stroke="black" stroke-width="0.3"/>
<path d="M96.779 23.6522L94.1163 19.0843L93.8062 19.3499L96.4805 23.7735L96.779 23.6522Z" fill="#464646"/>
<path d="M92.1124 20.6663L92.3485 20.4641L95.1663 24.8991L94.9301 25.1014L92.1124 20.6663Z" fill="#464646"/>
<path d="M96.779 23.6522L94.1163 19.0843L93.8062 19.3499L96.4805 23.7735L96.779 23.6522Z" stroke="black" stroke-width="0.3"/>
<path d="M92.1124 20.6663L92.3485 20.4641L95.1663 24.8991L94.9301 25.1014L92.1124 20.6663Z" stroke="black" stroke-width="0.3"/>
<path d="M95.8489 19.0775L97.3799 19.7805L97.6705 21.5458L97.3604 21.8114L97.3521 21.7607L96.9069 22.0655C96.9262 22.1468 96.9056 22.2208 96.5736 22.6195L93.4843 25.1311C93.2679 25.2701 93.1375 25.3369 92.8337 25.3694L91.9688 26.0262L90.4378 25.3232L90.3715 24.6516L90.279 23.7137L90.8991 23.1825C90.8991 23.1825 91.2633 22.5072 91.6976 22.2301L94.3217 20.1169C94.4574 19.9972 94.5399 19.9317 94.9186 19.8743L95.6274 19.3838L95.5388 19.3431L95.8489 19.0775Z" fill="#421D90"/>
<path d="M95.6274 19.3838L95.5388 19.3431L95.8489 19.0775L97.3799 19.7805L97.6705 21.5458L97.3604 21.8114L97.3521 21.7607M95.6274 19.3838L97.0698 20.0461L97.3521 21.7607M95.6274 19.3838L94.9186 19.8743M97.3521 21.7607L96.9069 22.0655M94.9186 19.8743C96.6744 19.579 97.1201 21.2115 96.9069 22.0655M94.9186 19.8743C94.5399 19.9317 94.4574 19.9972 94.3217 20.1169L91.6976 22.2301M96.9069 22.0655C96.9262 22.1468 96.9056 22.2208 96.5736 22.6195L93.4843 25.1311M91.6976 22.2301C93.2015 21.4792 95.2131 23.3819 93.4843 25.1311M91.6976 22.2301C91.2633 22.5072 90.8991 23.1825 90.8991 23.1825M93.4843 25.1311C93.2679 25.2701 93.1375 25.3369 92.8337 25.3694M92.8337 25.3694L93.3526 24.9753M92.8337 25.3694L91.9688 26.0262L90.4378 25.3232L90.3715 24.6516M90.8991 23.1825L91.5193 22.6513M90.8991 23.1825L90.279 23.7137L90.3715 24.6516M91.5193 22.6513L93.1937 23.3658M91.5193 22.6513L91.8294 22.3858L93.5038 23.1002M90.3715 24.6516L91.2712 23.9381L92.0502 25.0165L93.2731 24.1706M93.1937 23.3658L93.5038 23.1002M93.1937 23.3658L93.2731 24.1706M93.5038 23.1002L93.6627 24.7098L93.3526 24.9753M93.2731 24.1706L93.3526 24.9753" stroke="black" stroke-width="0.3"/>
</g>
<g clip-path="url(#clip1_8_2)">
<path d="M49.5942 22.6959H66.4058V64.3943H49.5942V22.6959Z" fill="black" stroke="black" stroke-width="0.3"/>
<path d="M57.7254 40.0214L57.7207 40.0214L57.716 40.0213C57.0146 40.0166 56.4458 40.0032 55.9705 39.9454C55.495 39.8876 55.1803 39.7919 54.9624 39.6648C54.627 39.4691 54.2836 39.058 54.2319 37.656V31.2118C54.2319 29.9952 54.4993 29.5631 54.8316 29.3327C55.2724 29.0272 56.0992 28.8626 57.7102 28.8626C58.6498 28.8626 59.386 28.8814 59.9717 28.9487C60.5628 29.0167 60.9249 29.1269 61.1556 29.2604C61.4874 29.4525 61.7681 29.8169 61.7681 31.2118V37.6621C61.7426 38.7736 61.5069 39.2275 61.1191 39.4961C60.6276 39.8367 59.6647 40.0558 57.7254 40.0214Z" stroke="#FEFEFF" stroke-width="3"/>
<path d="M61.1884 31.7983C61.1884 29.3964 60.3913 29.1562 57.8007 29.1562C55.6087 29.1562 54.8116 29.6366 54.8116 31.7983V37.0825C54.8857 39.5871 55.8792 39.7089 57.8007 39.7246C60.47 39.7808 61.152 39.0681 61.1884 37.0825V31.7983Z" fill="black"/>
<path d="M66.4058 23.5769C66.4058 14.7673 64.9565 9.18796 58.2899 2.72765C51.5159 9.32175 49.5942 13.2991 49.5942 23.5769H66.4058Z" fill="black" stroke="black" stroke-width="0.3"/>
<g filter="url(#filter1_d_8_2)">
<path d="M59.7391 62.9261C59.4493 52.9419 58.8651 53.1816 58 49.7118C57.1307 52.8987 56.2609 52.6483 55.971 62.9261C56.3504 69.5033 56.836 72.1038 58 75.553C59.316 72.0938 59.7502 69.4527 59.7391 62.9261Z" fill="black"/>
<path d="M59.7391 62.9261C59.4493 52.9419 58.8651 53.1816 58 49.7118C57.1307 52.8987 56.2609 52.6483 55.971 62.9261C56.3504 69.5033 56.836 72.1038 58 75.553C59.316 72.0938 59.7502 69.4527 59.7391 62.9261Z" stroke="black" stroke-width="0.3"/>
</g>
<path d="M38.8696 72.9102V68.5054L49.5942 57.934V64.3943C45.2764 66.0446 42.9501 68.1918 38.8696 72.9102Z" fill="#5B5B5B"/>
<path d="M66.4058 64.3943V58.5213L77.1304 67.9181V72.9102C74.1018 68.684 71.3837 66.4798 66.4058 64.3943Z" fill="#5B5B5B"/>
<path d="M38.8696 72.9102V68.5054L49.5942 57.934V64.3943C45.2764 66.0446 42.9501 68.1918 38.8696 72.9102Z" stroke="black" stroke-width="0.3"/>
<path d="M66.4058 64.3943V58.5213L77.1304 67.9181V72.9102C74.1018 68.684 71.3837 66.4798 66.4058 64.3943Z" stroke="black" stroke-width="0.3"/>
<g filter="url(#filter2_d_8_2)">
<path d="M38.7358 69.68C38.1449 60.416 38.7309 54.8907 49.5942 41.4896V45.5583V60.0895L38.7358 69.68Z" fill="black"/>
</g>
<g filter="url(#filter3_d_8_2)">
<path d="M49.5942 45.5583V60.0895L38.7358 69.68C38.1449 60.416 38.7309 54.8907 49.5942 41.4896V45.5583ZM49.5942 45.5583C46.5713 48.8419 44.7407 52.206 41.3075 60.0895" stroke="black" stroke-width="0.3" shape-rendering="crispEdges"/>
</g>
<g filter="url(#filter4_d_8_2)">
<path d="M77.4203 69.3864C78.0197 60.0258 77.4253 54.443 66.4058 40.9023V45.0134V59.6959L77.4203 69.3864Z" fill="black"/>
</g>
<path d="M66.4058 45.0134V59.6959L77.4203 69.3864C78.0197 60.0258 77.4253 54.443 66.4058 40.9023V45.0134ZM66.4058 45.0134C69.4722 48.3311 71.3291 51.7303 74.8116 59.6959" stroke="black" stroke-width="0.3"/>
</g>
<g filter="url(#filter5_d_8_2)">
<path d="M7.00003 61.1404C37.4904 60.5496 44.4552 63.9328 96.3608 51.7634C97.7889 51.51 98.7173 51.2947 99 51.1404C98.1075 51.3524 97.2279 51.5601 96.3608 51.7634C85.1594 53.7503 43.2173 58.075 41 53.6404L7.00003 61.1404Z" fill="#421D90"/>
<path d="M7.00003 61.1404C37.4904 60.5496 44.4552 63.9328 96.3608 51.7634C97.7889 51.51 98.7173 51.2947 99 51.1404C98.1075 51.3524 97.2279 51.5601 96.3608 51.7634C85.1594 53.7503 43.2173 58.075 41 53.6404L7.00003 61.1404Z" stroke="#421D90" stroke-linejoin="round"/>
</g>
<path d="M16.3551 87.9123C16.3551 88.4963 16.4831 88.9763 16.7391 89.3523C16.9951 89.7203 17.4151 89.9043 17.9991 89.9043C18.2391 89.9043 18.4871 89.8723 18.7431 89.8083C19.0071 89.7443 19.3311 89.6363 19.7151 89.4843L20.1591 90.7323C19.7271 90.9243 19.3271 91.0603 18.9591 91.1403C18.5991 91.2203 18.2511 91.2603 17.9151 91.2603C17.2431 91.2603 16.6791 91.1163 16.2231 90.8283C15.7751 90.5403 15.4391 90.1443 15.2151 89.6403C14.9911 89.1363 14.8791 88.5603 14.8791 87.9123V86.1963C14.8791 85.5483 14.9911 84.9723 15.2151 84.4683C15.4391 83.9643 15.7751 83.5723 16.2231 83.2923C16.6791 83.0043 17.2431 82.8603 17.9151 82.8603C18.2431 82.8603 18.5831 82.9003 18.9351 82.9803C19.2871 83.0523 19.6711 83.1803 20.0871 83.3643L19.6431 84.6363C19.2751 84.4843 18.9671 84.3763 18.7191 84.3123C18.4711 84.2483 18.2311 84.2163 17.9991 84.2163C17.4151 84.2163 16.9951 84.4003 16.7391 84.7683C16.4831 85.1363 16.3551 85.6123 16.3551 86.1963V87.9123ZM27.3746 86.1963V87.9123C27.3746 88.9523 27.1146 89.7723 26.5946 90.3723C26.0746 90.9643 25.3146 91.2603 24.3146 91.2603C23.3066 91.2603 22.5426 90.9643 22.0226 90.3723C21.5106 89.7723 21.2546 88.9523 21.2546 87.9123V86.1963C21.2546 85.1563 21.5106 84.3403 22.0226 83.7483C22.5426 83.1563 23.3066 82.8603 24.3146 82.8603C25.3146 82.8603 26.0746 83.1563 26.5946 83.7483C27.1146 84.3403 27.3746 85.1563 27.3746 86.1963ZM25.8986 86.1963C25.8986 85.5403 25.7706 85.0483 25.5146 84.7203C25.2586 84.3843 24.8586 84.2163 24.3146 84.2163C23.7706 84.2163 23.3706 84.3843 23.1146 84.7203C22.8586 85.0483 22.7306 85.5403 22.7306 86.1963V87.9123C22.7306 88.5683 22.8586 89.0643 23.1146 89.4003C23.3706 89.7363 23.7706 89.9043 24.3146 89.9043C24.8586 89.9043 25.2586 89.7363 25.5146 89.4003C25.7706 89.0643 25.8986 88.5683 25.8986 87.9123V86.1963ZM29.2784 91.1403V82.9803H31.9664C32.8224 82.9803 33.4624 83.1963 33.8864 83.6283C34.3184 84.0603 34.5344 84.6363 34.5344 85.3563V85.9923C34.5344 86.7123 34.3184 87.2923 33.8864 87.7323C33.4624 88.1643 32.8224 88.3803 31.9664 88.3803H30.7184V91.1403H29.2784ZM31.9664 84.3603H30.7184V87.0003H31.9664C32.3184 87.0003 32.5864 86.9123 32.7704 86.7363C32.9624 86.5603 33.0584 86.3123 33.0584 85.9923V85.3563C33.0584 85.0443 32.9624 84.8003 32.7704 84.6243C32.5864 84.4483 32.3184 84.3603 31.9664 84.3603ZM39.974 91.1403L39.47 89.5443H36.674L36.17 91.1403H34.742L37.466 82.9803H38.738L41.474 91.1403H39.974ZM37.454 87.0483L37.082 88.2243H39.05L38.678 87.0483L38.078 84.9843L37.454 87.0483ZM51.0114 86.1963V87.9123C51.0114 88.9523 50.7514 89.7723 50.2314 90.3723C49.7114 90.9643 48.9514 91.2603 47.9514 91.2603C46.9434 91.2603 46.1794 90.9643 45.6594 90.3723C45.1474 89.7723 44.8914 88.9523 44.8914 87.9123V86.1963C44.8914 85.1563 45.1474 84.3403 45.6594 83.7483C46.1794 83.1563 46.9434 82.8603 47.9514 82.8603C48.9514 82.8603 49.7114 83.1563 50.2314 83.7483C50.7514 84.3403 51.0114 85.1563 51.0114 86.1963ZM49.5354 86.1963C49.5354 85.5403 49.4074 85.0483 49.1514 84.7203C48.8954 84.3843 48.4954 84.2163 47.9514 84.2163C47.4074 84.2163 47.0074 84.3843 46.7514 84.7203C46.4954 85.0483 46.3674 85.5403 46.3674 86.1963V87.9123C46.3674 88.5683 46.4954 89.0643 46.7514 89.4003C47.0074 89.7363 47.4074 89.9043 47.9514 89.9043C48.4954 89.9043 48.8954 89.7363 49.1514 89.4003C49.4074 89.0643 49.5354 88.5683 49.5354 87.9123V86.1963ZM52.9151 91.1403V82.9803H54.2351C54.8671 83.8043 55.4671 84.6763 56.0351 85.5963C56.6031 86.5083 57.1191 87.4483 57.5831 88.4163L57.4751 85.9803V82.9803H58.8551V91.1403H57.5351C57.0231 90.1323 56.4911 89.1203 55.9391 88.1043C55.3951 87.0803 54.8151 86.1163 54.1991 85.2123L54.2951 88.0203V91.1403H52.9151ZM65.8105 89.7603V91.1403H61.1065V82.9803H62.5465V89.7603H65.8105ZM68.6286 91.1403H67.1886V82.9803H68.6286V91.1403ZM70.88 91.1403V82.9803H72.2C72.832 83.8043 73.432 84.6763 74 85.5963C74.568 86.5083 75.084 87.4483 75.548 88.4163L75.44 85.9803V82.9803H76.82V91.1403H75.5C74.988 90.1323 74.456 89.1203 73.904 88.1043C73.36 87.0803 72.78 86.1163 72.164 85.2123L72.26 88.0203V91.1403H70.88ZM83.7994 89.7603V91.1403H79.0714V82.9803H83.6794V84.3603H80.5114V86.3163H83.3194V87.6963H80.5114V89.7603H83.7994ZM87.9073 91.1403V82.9803H90.6673C91.6433 82.9803 92.3873 83.2523 92.8993 83.7963C93.4113 84.3403 93.6673 85.1403 93.6673 86.1963V87.9123C93.6673 88.9763 93.4113 89.7803 92.8993 90.3243C92.3873 90.8683 91.6433 91.1403 90.6673 91.1403H87.9073ZM90.6073 84.3603H89.3473V89.7603H90.6073C91.1753 89.7603 91.5793 89.6203 91.8193 89.3403C92.0673 89.0603 92.1913 88.5843 92.1913 87.9123V86.1963C92.1913 85.5323 92.0673 85.0603 91.8193 84.7803C91.5793 84.5003 91.1753 84.3603 90.6073 84.3603ZM100.299 89.7603V91.1403H95.5714V82.9803H100.179V84.3603H97.0114V86.3163H99.8194V87.6963H97.0114V89.7603H100.299ZM22.308 105.14L21.804 103.544H19.008L18.504 105.14H17.076L19.8 96.9803H21.072L23.808 105.14H22.308ZM19.788 101.048L19.416 102.224H21.384L21.012 101.048L20.412 98.9843L19.788 101.048ZM26.947 103.928C27.875 103.928 28.339 103.584 28.339 102.896C28.339 102.616 28.267 102.396 28.123 102.236C27.987 102.076 27.731 101.936 27.355 101.816L26.371 101.492C25.195 101.108 24.607 100.336 24.607 99.1763C24.607 98.5043 24.815 97.9523 25.231 97.5203C25.655 97.0803 26.315 96.8603 27.211 96.8603C27.587 96.8603 27.959 96.9043 28.327 96.9923C28.695 97.0723 29.087 97.2043 29.503 97.3883L29.059 98.6243C28.675 98.4723 28.347 98.3643 28.075 98.3003C27.811 98.2283 27.539 98.1923 27.259 98.1923C26.891 98.1923 26.599 98.2603 26.383 98.3963C26.175 98.5243 26.071 98.7603 26.071 99.1043C26.071 99.3603 26.143 99.5723 26.287 99.7403C26.439 99.9003 26.687 100.036 27.031 100.148L28.015 100.472C28.607 100.672 29.051 100.964 29.347 101.348C29.651 101.724 29.803 102.224 29.803 102.848C29.803 103.568 29.575 104.152 29.119 104.6C28.663 105.04 27.947 105.26 26.971 105.26C26.587 105.26 26.187 105.216 25.771 105.128C25.363 105.032 24.915 104.872 24.427 104.648L24.871 103.412C25.319 103.604 25.699 103.74 26.011 103.82C26.331 103.892 26.643 103.928 26.947 103.928ZM30.4099 98.3603V96.9803H36.4099V98.3603H34.1299V105.14H32.6899V98.3603H30.4099ZM39.1383 102.14V105.14H37.6983V96.9803H40.4223C41.2463 96.9803 41.8783 97.1923 42.3183 97.6163C42.7663 98.0323 42.9903 98.5923 42.9903 99.2963V99.8123C42.9903 100.276 42.8903 100.684 42.6903 101.036C42.4903 101.388 42.2023 101.656 41.8263 101.84C42.4823 102.96 43.0423 104.06 43.5063 105.14H41.8623C41.4623 104.14 40.9863 103.14 40.4343 102.14H39.1383ZM40.4223 98.3003H39.1383V100.82H40.4223C40.7743 100.82 41.0423 100.732 41.2263 100.556C41.4183 100.372 41.5143 100.124 41.5143 99.8123V99.2963C41.5143 98.9923 41.4183 98.7523 41.2263 98.5763C41.0423 98.3923 40.7743 98.3003 40.4223 98.3003ZM50.7828 100.196V101.912C50.7828 102.952 50.5228 103.772 50.0028 104.372C49.4828 104.964 48.7228 105.26 47.7228 105.26C46.7148 105.26 45.9508 104.964 45.4308 104.372C44.9188 103.772 44.6628 102.952 44.6628 101.912V100.196C44.6628 99.1563 44.9188 98.3403 45.4308 97.7483C45.9508 97.1563 46.7148 96.8603 47.7228 96.8603C48.7228 96.8603 49.4828 97.1563 50.0028 97.7483C50.5228 98.3403 50.7828 99.1563 50.7828 100.196ZM49.3068 100.196C49.3068 99.5403 49.1788 99.0483 48.9228 98.7203C48.6668 98.3843 48.2668 98.2163 47.7228 98.2163C47.1788 98.2163 46.7788 98.3843 46.5228 98.7203C46.2668 99.0483 46.1388 99.5403 46.1388 100.196V101.912C46.1388 102.568 46.2668 103.064 46.5228 103.4C46.7788 103.736 47.1788 103.904 47.7228 103.904C48.2668 103.904 48.6668 103.736 48.9228 103.4C49.1788 103.064 49.3068 102.568 49.3068 101.912V100.196ZM52.6866 105.14V96.9803H54.0066C54.6386 97.8043 55.2386 98.6763 55.8066 99.5963C56.3746 100.508 56.8906 101.448 57.3546 102.416L57.2466 99.9803V96.9803H58.6266V105.14H57.3066C56.7946 104.132 56.2626 103.12 55.7106 102.104C55.1666 101.08 54.5866 100.116 53.9706 99.2123L54.0666 102.02V105.14H52.6866ZM65.222 105.14L64.718 103.544H61.922L61.418 105.14H59.99L62.714 96.9803H63.986L66.722 105.14H65.222ZM62.702 101.048L62.33 102.224H64.298L63.926 101.048L63.326 98.9843L62.702 101.048ZM63.974 96.1163H62.762L63.914 94.1243L65.21 94.6763L63.974 96.1163ZM67.7173 96.9803H69.1933V102.212C69.1933 102.74 69.3093 103.156 69.5413 103.46C69.7733 103.756 70.1453 103.904 70.6573 103.904C71.1693 103.904 71.5413 103.756 71.7733 103.46C72.0053 103.156 72.1213 102.74 72.1213 102.212V96.9803H73.5973V102.212C73.5973 103.132 73.3533 103.872 72.8653 104.432C72.3773 104.984 71.6413 105.26 70.6573 105.26C69.6653 105.26 68.9253 104.984 68.4373 104.432C67.9573 103.872 67.7173 103.132 67.7173 102.212V96.9803ZM74.6951 98.3603V96.9803H80.6951V98.3603H78.4151V105.14H76.9751V98.3603H74.6951ZM83.4235 105.14H81.9835V96.9803H83.4235V105.14ZM86.7789 101.912C86.7789 102.496 86.9069 102.976 87.1629 103.352C87.4189 103.72 87.8389 103.904 88.4229 103.904C88.6629 103.904 88.9109 103.872 89.1669 103.808C89.4309 103.744 89.7549 103.636 90.1389 103.484L90.5829 104.732C90.1509 104.924 89.7509 105.06 89.3829 105.14C89.0229 105.22 88.6749 105.26 88.3389 105.26C87.6669 105.26 87.1029 105.116 86.6469 104.828C86.1989 104.54 85.8629 104.144 85.6389 103.64C85.4149 103.136 85.3029 102.56 85.3029 101.912V100.196C85.3029 99.5483 85.4149 98.9723 85.6389 98.4683C85.8629 97.9643 86.1989 97.5723 86.6469 97.2923C87.1029 97.0043 87.6669 96.8603 88.3389 96.8603C88.6669 96.8603 89.0069 96.9003 89.3589 96.9803C89.7109 97.0523 90.0949 97.1803 90.5109 97.3643L90.0669 98.6363C89.6989 98.4843 89.3909 98.3763 89.1429 98.3123C88.8949 98.2483 88.6549 98.2163 88.4229 98.2163C87.8389 98.2163 87.4189 98.4003 87.1629 98.7683C86.9069 99.1363 86.7789 99.6123 86.7789 100.196V101.912ZM96.4291 105.14L95.9251 103.544H93.1291L92.6251 105.14H91.1971L93.9211 96.9803H95.1931L97.9291 105.14H96.4291ZM93.9091 101.048L93.5371 102.224H95.5051L95.1331 101.048L94.5331 98.9843L93.9091 101.048Z" fill="black"/>
<path d="M76.6 12L76.3505 11.1683L77 10.6H76.18L76 10L75.82 10.6H75L75.6495 11.1683L75.4 12L76 11.475L76.6 12Z" fill="#421D90"/>
<path d="M76.6 24L76.3505 23.1683L77 22.6H76.18L76 22L75.82 22.6H75L75.6495 23.1683L75.4 24L76 23.475L76.6 24Z" fill="#421D90"/>
<path d="M80.6 16L80.3505 15.1683L81 14.6H80.18L80 14L79.82 14.6H79L79.6495 15.1683L79.4 16L80 15.475L80.6 16Z" fill="#421D90"/>
<path d="M91.6 40L91.3505 39.1683L92 38.6H91.18L91 38L90.82 38.6H90L90.6495 39.1683L90.4 40L91 39.475L91.6 40Z" fill="#421D90"/>
<path d="M91.6 48L91.3505 47.1683L92 46.6H91.18L91 46L90.82 46.6H90L90.6495 47.1683L90.4 48L91 47.475L91.6 48Z" fill="#421D90"/>
<path d="M91.6 59L91.3505 58.1683L92 57.6H91.18L91 57L90.82 57.6H90L90.6495 58.1683L90.4 59L91 58.475L91.6 59Z" fill="#421D90"/>
<path d="M95.6 65L95.3505 64.1683L96 63.6H95.18L95 63L94.82 63.6H94L94.6495 64.1683L94.4 65L95 64.475L95.6 65Z" fill="#421D90"/>
<path d="M86.6 67L86.3505 66.1683L87 65.6H86.18L86 65L85.82 65.6H85L85.6495 66.1683L85.4 67L86 66.475L86.6 67Z" fill="#421D90"/>
<path d="M20.6 70L20.3505 69.1683L21 68.6H20.18L20 68L19.82 68.6H19L19.6495 69.1683L19.4 70L20 69.475L20.6 70Z" fill="#421D90"/>
<path d="M29.6 66L29.3505 65.1683L30 64.6H29.18L29 64L28.82 64.6H28L28.6495 65.1683L28.4 66L29 65.475L29.6 66Z" fill="#421D90"/>
<path d="M84.6 43L84.3505 42.1683L85 41.6H84.18L84 41L83.82 41.6H83L83.6495 42.1683L83.4 43L84 42.475L84.6 43Z" fill="#421D90"/>
<path d="M83.6 50L83.3505 49.1683L84 48.6H83.18L83 48L82.82 48.6H82L82.6495 49.1683L82.4 50L83 49.475L83.6 50Z" fill="#421D90"/>
<path d="M27 54.5L10 60.5H22C16.0556 59.6726 24.187 55.8899 27 54.5Z" fill="white" stroke="white" stroke-width="0.1" stroke-linejoin="round"/>
<path d="M31.6 18L31.3505 17.1683L32 16.6H31.18L31 16L30.82 16.6H30L30.6495 17.1683L30.4 18L31 17.475L31.6 18Z" fill="#421D90"/>
<path d="M39.6 22L39.3505 21.1683L40 20.6H39.18L39 20L38.82 20.6H38L38.6495 21.1683L38.4 22L39 21.475L39.6 22Z" fill="#421D90"/>
<path d="M21.6 39L21.3505 38.1683L22 37.6H21.18L21 37L20.82 37.6H20L20.6495 38.1683L20.4 39L21 38.475L21.6 39Z" fill="#421D90"/>
<path d="M21.6 29L21.3505 28.1683L22 27.6H21.18L21 27L20.82 27.6H20L20.6495 28.1683L20.4 29L21 28.475L21.6 29Z" fill="#421D90"/>
<path d="M18.6 36L18.3505 35.1683L19 34.6H18.18L18 34L17.82 34.6H17L17.6495 35.1683L17.4 36L18 35.475L18.6 36Z" fill="#421D90"/>
<path d="M17.6 52L17.3505 51.1683L18 50.6H17.18L17 50L16.82 50.6H16L16.6495 51.1683L16.4 52L17 51.475L17.6 52Z" fill="#421D90"/>
<path d="M28.6 48L28.3505 47.1683L29 46.6H28.18L28 46L27.82 46.6H27L27.6495 47.1683L27.4 48L28 47.475L28.6 48Z" fill="#421D90"/>
<path d="M41.6 43L41.3505 42.1683L42 41.6H41.18L41 41L40.82 41.6H40L40.6495 42.1683L40.4 43L41 42.475L41.6 43Z" fill="#421D90"/>
<path d="M36.6 29L36.3505 28.1683L37 27.6H36.18L36 27L35.82 27.6H35L35.6495 28.1683L35.4 29L36 28.475L36.6 29Z" fill="#421D90"/>
<path d="M37.6 13L37.3505 12.1683L38 11.6H37.18L37 11L36.82 11.6H36L36.6495 12.1683L36.4 13L37 12.475L37.6 13Z" fill="#421D90"/>
<path d="M42.6 18L42.3505 17.1683L43 16.6H42.18L42 16L41.82 16.6H41L41.6495 17.1683L41.4 18L42 17.475L42.6 18Z" fill="#421D90"/>
<defs>
<filter id="filter0_d_8_2" x="0.32457" y="21.7135" width="98.9479" height="50.4141" filterUnits="userSpaceOnUse" color-interpolation-filters="sRGB">
<feFlood flood-opacity="0" result="BackgroundImageFix"/>
<feColorMatrix in="SourceAlpha" type="matrix" values="0 0 0 0 0 0 0 0 0 0 0 0 0 0 0 0 0 0 127 0" result="hardAlpha"/>
<feOffset dy="4"/>
<feGaussianBlur stdDeviation="3.25"/>
<feComposite in2="hardAlpha" operator="out"/>
<feColorMatrix type="matrix" values="0 0 0 0 0 0 0 0 0 0 0 0 0 0 0 0 0 0 0.5 0"/>
<feBlend mode="normal" in2="BackgroundImageFix" result="effect1_dropShadow_8_2"/>
<feBlend mode="normal" in="SourceGraphic" in2="effect1_dropShadow_8_2" result="shape"/>
</filter>
<filter id="filter1_d_8_2" x="51.8205" y="44.1179" width="12.0688" height="34.8792" filterUnits="userSpaceOnUse" color-interpolation-filters="sRGB">
<feFlood flood-opacity="0" result="BackgroundImageFix"/>
<feColorMatrix in="SourceAlpha" type="matrix" values="0 0 0 0 0 0 0 0 0 0 0 0 0 0 0 0 0 0 127 0" result="hardAlpha"/>
<feOffset dy="-1"/>
<feGaussianBlur stdDeviation="2"/>
<feComposite in2="hardAlpha" operator="out"/>
<feColorMatrix type="matrix" values="0 0 0 0 1 0 0 0 0 1 0 0 0 0 1 0 0 0 0.3 0"/>
<feBlend mode="normal" in2="BackgroundImageFix" result="effect1_dropShadow_8_2"/>
<feBlend mode="normal" in="SourceGraphic" in2="effect1_dropShadow_8_2" result="shape"/>
</filter>
<filter id="filter2_d_8_2" x="34.5797" y="41.4896" width="19.0145" height="36.1905" filterUnits="userSpaceOnUse" color-interpolation-filters="sRGB">
<feFlood flood-opacity="0" result="BackgroundImageFix"/>
<feColorMatrix in="SourceAlpha" type="matrix" values="0 0 0 0 0 0 0 0 0 0 0 0 0 0 0 0 0 0 127 0" result="hardAlpha"/>
<feOffset dy="4"/>
<feGaussianBlur stdDeviation="2"/>
<feComposite in2="hardAlpha" operator="out"/>
<feColorMatrix type="matrix" values="0 0 0 0 1 0 0 0 0 1 0 0 0 0 1 0 0 0 0.25 0"/>
<feBlend mode="normal" in2="BackgroundImageFix" result="effect1_dropShadow_8_2"/>
<feBlend mode="normal" in="SourceGraphic" in2="effect1_dropShadow_8_2" result="shape"/>
</filter>
<filter id="filter3_d_8_2" x="34.4297" y="41.0663" width="19.3145" height="36.9288" filterUnits="userSpaceOnUse" color-interpolation-filters="sRGB">
<feFlood flood-opacity="0" result="BackgroundImageFix"/>
<feColorMatrix in="SourceAlpha" type="matrix" values="0 0 0 0 0 0 0 0 0 0 0 0 0 0 0 0 0 0 127 0" result="hardAlpha"/>
<feOffset dy="4"/>
<feGaussianBlur stdDeviation="2"/>
<feComposite in2="hardAlpha" operator="out"/>
<feColorMatrix type="matrix" values="0 0 0 0 1 0 0 0 0 1 0 0 0 0 1 0 0 0 0.25 0"/>
<feBlend mode="normal" in2="BackgroundImageFix" result="effect1_dropShadow_8_2"/>
<feBlend mode="normal" in="SourceGraphic" in2="effect1_dropShadow_8_2" result="shape"/>
</filter>
<filter id="filter4_d_8_2" x="62.4058" y="40.9023" width="19.1728" height="36.4841" filterUnits="userSpaceOnUse" color-interpolation-filters="sRGB">
<feFlood flood-opacity="0" result="BackgroundImageFix"/>
<feColorMatrix in="SourceAlpha" type="matrix" values="0 0 0 0 0 0 0 0 0 0 0 0 0 0 0 0 0 0 127 0" result="hardAlpha"/>
<feOffset dy="4"/>
<feGaussianBlur stdDeviation="2"/>
<feComposite in2="hardAlpha" operator="out"/>
<feColorMatrix type="matrix" values="0 0 0 0 1 0 0 0 0 1 0 0 0 0 1 0 0 0 0.25 0"/>
<feBlend mode="normal" in2="BackgroundImageFix" result="effect1_dropShadow_8_2"/>
<feBlend mode="normal" in="SourceGraphic" in2="effect1_dropShadow_8_2" result="shape"/>
</filter>
<filter id="filter5_d_8_2" x="0" y="48.1403" width="106" height="24.0144" filterUnits="userSpaceOnUse" color-interpolation-filters="sRGB">
<feFlood flood-opacity="0" result="BackgroundImageFix"/>
<feColorMatrix in="SourceAlpha" type="matrix" values="0 0 0 0 0 0 0 0 0 0 0 0 0 0 0 0 0 0 127 0" result="hardAlpha"/>
<feOffset dy="4"/>
<feGaussianBlur stdDeviation="3.25"/>
<feComposite in2="hardAlpha" operator="out"/>
<feColorMatrix type="matrix" values="0 0 0 0 0 0 0 0 0 0 0 0 0 0 0 0 0 0 0.5 0"/>
<feBlend mode="normal" in2="BackgroundImageFix" result="effect1_dropShadow_8_2"/>
<feBlend mode="normal" in="SourceGraphic" in2="effect1_dropShadow_8_2" result="shape"/>
</filter>
<clipPath id="clip0_8_2">
<rect width="21.2919" height="27.2063" fill="white" transform="translate(85.924 7.14034) rotate(8.29266)"/>
</clipPath>
<clipPath id="clip1_8_2">
<rect width="40" height="74" fill="white" transform="translate(38 2.14035)"/>
</clipPath>
</defs>
</svg>
